<svg xmlns="http://www.w3.org/2000/svg" viewBox="0 0 863.07 196.95"><defs><style>.cls-1{fill:#fff;}</style></defs><g id="Layer_2" data-name="Layer 2"><g id="Layer_1-2" data-name="Layer 1"><path class="cls-1" d="M858.83,166.2,736.3,13.77c-14.76-18.36-38.69-18.36-53.46,0l-70.6,87.84c-23,28.64-60.35,28.64-83.37,0l-70.6-87.84c-14.77-18.36-38.7-18.36-53.46,0L334.2,101.61c-23,28.64-60.34,28.64-83.37,0l-70.6-87.84c-14.76-18.36-38.7-18.36-53.46,0L4.24,166.2c-5.82,7.24-5.65,19.11.51,26.08,5.77,6.53,14.75,5.9,20.26-1l86.8-108c23-28.64,60.35-28.64,83.38,0l70.6,87.83c14.76,18.37,38.7,18.37,53.46,0l70.6-87.83c23-28.64,60.35-28.64,83.37,0l70.61,87.83c14.76,18.37,38.69,18.37,53.46,0l1.3-1.62c61.3-76.25,160.67-76.25,222,0l17.79,22.14a12.58,12.58,0,0,0,20.48,0C864.49,184.64,864.49,173.24,858.83,166.2ZM709.92,91.66a28.6,28.6,0,1,1,28.59-28.6A28.61,28.61,0,0,1,709.92,91.66Z"/></g></g></svg>