<svg xmlns="http://www.w3.org/2000/svg" viewBox="0 0 1000 1000"><defs><style>.cls-1{fill:#fff;}</style></defs><g id="Layer_2" data-name="Layer 2"><g id="Layer_1-2" data-name="Layer 1"><rect x="0.5" y="0.5" width="999" height="999"/><path class="cls-1" d="M999,1V999H1V1H999m1-1H0V1000H1000V0Z"/><path class="cls-1" d="M256.82,789q-5.48-5-5.46-13.44V225.32q0-9.24,5.46-14.28t13.86-5h21q12.6,0,17.64,10.92L500,588.2,691.52,216.92Q697.39,206,709.16,206h20.16q9.24,0,14.28,5t5,14.28v550.2q0,8.4-5.46,13.44a19.67,19.67,0,0,1-13.86,5H714.2q-8.4,0-13.44-5t-5-13.44V320.24L535.28,636.08q-7.56,16.81-26,16.8H490.76q-18.48,0-26-16.8L304.28,320.24V775.52q0,8.4-5,13.44t-13.44,5H270.68Q262.28,794,256.82,789Z"/></g></g></svg>